<svg fill="none" height="35" viewBox="0 0 120 35" width="120" xmlns="http://www.w3.org/2000/svg"><path d="m16.8799 0c2.5241 0 4.8905.362426 7.0465 1.08728 2.156.72485 4.0491 1.81213 5.6266 3.21006 1.5776 1.4497 2.8396 3.21006 3.7336 5.38461.8939 2.17455 1.3672 4.71155 1.3672 7.61095 0 2.537-.3681 4.9186-1.1043 7.0414-.7362 2.1746-1.8405 4.0385-3.3129 5.5917-1.4724 1.5533-3.3128 2.7959-5.5214 3.6761s-4.8379 1.3461-7.8353 1.3461h-16.8799v-34.9482zm-.5784 28.5281c1.262 0 2.4715-.1553 3.6284-.5177 1.1569-.3625 2.2086-.932 3.1025-1.8122.894-.8284 1.6302-1.9157 2.2086-3.2618.5259-1.3462.8414-2.9512.8414-4.9186 0-1.7604-.2104-3.3654-.5785-4.7634-.3681-1.3979-.9991-2.6405-1.893-3.676-.894-1.0355-2.0509-1.81213-3.4707-2.32988s-3.2077-.8284-5.3637-.8284h-6.15249v22.05618h7.67749z" fill="#fff"/><path d="m43.1201 0v28.5281h19.0885v6.4719h-27.66v-35z" fill="#fff"/><path d="m82.2962 0h7.9404v6.47189h-7.9404" fill="#32bbaf"/><g fill="#fff"><path d="m77.0903 0h-3.6284-24.2419v6.47189h15.4601v28.52811h8.624v-28.52811h.1578 3.6284 4.1016v-6.47189z"/><path d="m76.2489 23.5059v10.3033h6.3629v.9319h-7.4146v-11.2352z"/><path d="m87.6074 23.5059 4.4698 11.1835h-1.1569l-1.3673-3.469h-5.1533l-1.3673 3.469h-1.1569l4.575-11.1835zm1.5775 6.8343-2.2086-5.747-2.3137 5.747z"/><path d="m97.2831 23.5059c.4733 0 .9465.0518 1.3672.1553.4207.1036.8414.2589 1.1569.466.3158.2071.5788.5178.7888.8284.21.3625.315.7767.315 1.2944 0 .3107-.052.5695-.157.8802-.105.2589-.211.5177-.421.7766-.158.2071-.368.4142-.631.5695-.2629.1554-.5258.2589-.7888.3107v.0518c.7362.1035 1.3148.4142 1.7358.8801.42.466.631 1.0873.631 1.8639 0 .1554 0 .3625-.053.6213-.053.2071-.105.466-.21.6731-.106.2071-.211.466-.421.6731-.158.2071-.421.4142-.7362.6213-.3155.1553-.6836.3107-1.1043.4142-.4207.1036-.9466.1553-1.5776.1553h-4.7853v-11.2352zm0 4.9187c.4207 0 .7888-.0518 1.1569-.1554.3155-.1035.5784-.2588.7887-.4142.2104-.1553.3682-.3624.4733-.6213.1052-.2071.1578-.4659.1578-.7248 0-1.398-.8414-2.1228-2.5767-2.1228h-3.7336v3.9867h3.7336zm0 5.3846c.4207 0 .7888-.0518 1.1569-.1036s.6836-.2071.9465-.3624.4733-.4142.6315-.7249c.157-.3106.262-.673.262-1.139 0-.7249-.262-1.2426-.7883-1.605-.5259-.3625-1.2621-.5178-2.2086-.5178h-3.7336v4.4527z"/><path d="m103.225 32.463c.211.3624.474.6731.789.932.316.2071.736.4142 1.21.5177.473.1036.946.1553 1.472.1553.315 0 .631-.0517.946-.1035.369-.1036.684-.2071 1-.4142.315-.2071.578-.4142.736-.7249.21-.3106.315-.6213.315-1.0355 0-.3106-.052-.5695-.21-.8284-.158-.2588-.316-.4142-.578-.5695-.211-.1553-.474-.2589-.737-.3624-.263-.1036-.526-.1553-.788-.2589l-2.525-.6213c-.315-.1035-.631-.2071-.946-.3106-.316-.1036-.579-.3107-.841-.5178-.263-.2071-.421-.466-.579-.7766-.158-.3107-.21-.6731-.21-1.1391 0-.2589.052-.5695.157-.9319.106-.3625.316-.7249.579-1.0355.315-.3107.684-.6213 1.209-.8284.526-.2071 1.157-.3625 1.946-.3625.578 0 1.104.0518 1.63.2071.526.1554.947.3625 1.315.6731.368.3107.683.6731.894 1.0873.21.4142.368.9319.368 1.5015h-1.104c0-.4142-.106-.7767-.316-1.1391-.158-.3106-.421-.5695-.684-.7766-.262-.2071-.631-.3624-.946-.466-.368-.1035-.736-.1553-1.157-.1553-.368 0-.736.0518-1.052.1035-.368.1036-.631.2071-.894.3625-.263.1553-.473.4142-.631.673-.157.2589-.263.6213-.263 1.0355 0 .2589.053.466.158.6731s.211.3625.368.5178c.158.1553.368.2589.526.3106.21.1036.421.1554.684.2071l2.787.6731c.42.1036.789.2589 1.157.3624.368.1554.683.3625.946.5696s.473.5177.631.8284c.158.3106.211.7248.211 1.1908 0 .1035 0 .3106-.053.5177s-.105.4142-.21.6731c-.106.2589-.263.466-.421.7249-.21.2588-.421.4659-.789.673-.315.2071-.736.3625-1.209.466-.474.1036-1.052.1553-1.736.1553-.683 0-1.314-.0517-1.84-.2071-.579-.1553-1.052-.3624-1.472-.673-.421-.3107-.737-.7249-.947-1.1909-.21-.4659-.316-1.0872-.263-1.7603h1.104c-.052.5695.053 1.0355.263 1.3979z"/><path d="m110.903 23.5059v-.6213h3.681v.6213h-1.42v3.0548h-.841v-3.0548zm5.626-.5695 1.105 2.6405 1.104-2.6405h1.209v3.676h-.788v-2.9512l-1.21 2.9512h-.683l-1.21-2.9512v2.9512h-.789v-3.676z"/></g></svg>